<?xml version="1.0" encoding="utf-8"?>
<!-- Generator: Adobe Illustrator 27.5.0, SVG Export Plug-In . SVG Version: 6.00 Build 0)  -->
<svg version="1.1" xmlns="http://www.w3.org/2000/svg" xmlns:xlink="http://www.w3.org/1999/xlink" x="0px" y="0px"
	 viewBox="0 0 500 500" style="enable-background: new 0 0 500 500" xml:space="preserve">
<g id="Floor">
	<path id="Floor_3_" style="fill: #f5f5f5" d="M 97.3 429.5 c 86.1 45 225.6 45 311.7 0 c 86.1 -45 86.1 -117.9 0 -162.8 c -86.1 -45 -225.6 -45 -311.7 0 C 11.2 311.6 11.2 384.5 97.3 429.5 z"
		/>
</g>
<g id="Shadows">
	<ellipse id="Shadow" style="fill: #e0e0e0" cx="354.7" cy="365" rx="40.9" ry="23.6"/>
</g>
<g id="Plants">
	<g id="Plants_3_">
		<g id="XMLID_2129_">
			<g id="XMLID_2124_">
				<g id="XMLID_2127_">
					<path id="XMLID_2131_" style="fill: #33ff52" d="M 105.6 352.7 c -0.6 -6.9 -6.9 -20.9 -14.9 -29.3 c -8 -8.4 -19.9 -14 -27.7 -10.5 c -7.3 3.2 -5.6 13 4.1 18.7 c 9.7 5.7 24 12.7 29 23.6 l 9.6 13.1 L 105.6 352.7 z"/>
					<path id="XMLID_2130_" style="opacity: 0.1" d="M 105.6 352.7 c -0.6 -6.9 -6.9 -20.9 -14.9 -29.3 c -8 -8.4 -19.9 -14 -27.7 -10.5 c -7.3 3.2 -5.6 13 4.1 18.7 c 9.7 5.7 24 12.7 29 23.6 l 9.6 13.1 L 105.6 352.7 z"/>
				</g>
				<g id="XMLID_2125_">
					<path id="XMLID_1153_" style="fill: #ffffff" d="M 106.9 362.1 c -0.2 0 -0.4 -0.1 -0.5 -0.4 c -6.7 -23.3 -27.6 -40.9 -39.4 -44.1 c -0.3 -0.1 -0.4 -0.4 -0.4 -0.6 c 0.1 -0.3 0.3 -0.4 0.6 -0.4 c 12.1 3.3 33.3 21.2 40.1 44.8 c 0.1 0.3 -0.1 0.6 -0.3 0.6 C 107 362.1 107 362.1 106.9 362.1 z"/>
				</g>
			</g>
			<g id="XMLID_2122_">
				<g id="XMLID_2123_">
					<path id="XMLID_2126_" style="fill: #33ff52" d="M 104.7 377.6 c -1.5 -3.8 -6.8 -9.8 -15 -14.5 c -9 -5.1 -20.1 -6.9 -22.9 -11.3 c -3.5 -5.2 0.7 -10.8 9.6 -10.5 c 8.8 0.3 25.3 10.9 29.3 28.7 L 104.7 377.6 z"/>
				</g>
				<g id="XMLID_2128_">
					<path id="XMLID_1151_" style="fill: #ffffff" d="M 106.1 373.4 c -0.2 0 -0.4 -0.1 -0.5 -0.3 c -9 -19.7 -25.1 -25.4 -32.4 -25.7 c -0.3 0 -0.5 -0.2 -0.5 -0.5 c 0 -0.3 0.2 -0.5 0.5 -0.5 c 8 0.3 24.1 6.3 33.3 26.3 c 0.1 0.3 0 0.6 -0.3 0.7 C 106.2 373.4 106.1 373.4 106.1 373.4 z"/>
				</g>
			</g>
		</g>
	</g>
	<g id="Plants_4_">
		<g id="XMLID_1160_">
			<g id="XMLID_1221_">
				<path id="XMLID_1222_" style="fill: #33ff52" d="M 377.2 343.7 c -0.2 -5.6 1.4 -14.9 6.9 -24.3 c 5.9 -10 13.7 -16.7 20.2 -14.7 c 6.1 1.9 4.7 10.2 -4.4 19.1 c -6.4 6.3 -12.9 14.3 -15.9 23.5 l -5.1 11.8 L 377.2 343.7 z"/>
			</g>
			<g id="XMLID_1218_">
				<path id="XMLID_1220_" style="fill: #33ff52" d="M 377.2 343.7 c -0.2 -5.6 1.4 -14.9 6.9 -24.3 c 5.9 -10 13.7 -16.7 20.2 -14.7 c 6.1 1.9 4.7 10.2 -4.4 19.1 c -6.4 6.3 -12.9 14.3 -15.9 23.5 l -5.1 11.8 L 377.2 343.7 z"/>
			</g>
			<g id="XMLID_1223_" style="opacity: 0.1">
				<path id="XMLID_1224_" d="M 377.2 343.7 c -0.2 -5.6 1.4 -14.9 6.9 -24.3 c 5.9 -10 13.7 -16.7 20.2 -14.7 c 6.1 1.9 4.7 10.2 -4.4 19.1 c -6.4 6.3 -12.9 14.3 -15.9 23.5 l -5.1 11.8 L 377.2 343.7 z"/>
			</g>
			<g id="XMLID_1161_">
				<path id="XMLID_1217_" style="fill: #ffffff" d="M 378.2 347.9 c 0.2 0 0.3 -0.1 0.3 -0.3 c 3.9 -15.9 13.8 -32.7 23.1 -39 c 0.2 -0.1 0.2 -0.4 0.1 -0.6 c -0.1 -0.2 -0.4 -0.2 -0.6 -0.1 c -9.4 6.4 -19.5 23.4 -23.4 39.5 c -0.1 0.2 0.1 0.4 0.3 0.5 C 378.1 347.9 378.1 347.9 378.2 347.9 z"/>
			</g>
		</g>
		<g id="XMLID_1154_">
			<path id="XMLID_1159_" style="fill: #33ff52" d="M 377.1 361.8 c 0 0 3.9 3.9 10.9 5.4 c 7 1.5 10.3 -1.6 10.3 -1.6 s -2.4 -6.8 -6.3 -8.8 c 0 0 6.7 1.8 11.9 5.7 c 0 0 4.3 0.3 6.4 -6.1 c 0 0 -2.3 -4.1 -10.7 -6.7 c 0 0 5.3 -1 12.6 1.4 c 0.5 0.3 3.4 -8.1 4.4 -11.9 c 1 -3.9 -0.6 -3.9 -3.6 -4.9 c -3 -1 -13.3 -2.1 -15.3 -0.6 c -2 1.6 -3.3 7.2 -3.3 7.2 s -1.6 -3.3 -1 -6.2 c 0 0 -3 -1.2 -6.5 -0.2 c -3.5 1 -3.4 2.7 -3.5 5.2 c -0.2 2.7 0 4.4 0.6 7.5 c 0 0 -2.2 -2.2 -1.9 -9.7 c 0 0 -4.9 3.7 -6.9 7 C 373 347.5 373 356.4 377.1 361.8 z"/>
			<g id="XMLID_1157_">
				<path id="XMLID_1158_" style="fill: #ffffff" d="M 377.1 362.2 c 0.1 0 0.3 -0.1 0.4 -0.2 c 6.4 -11.4 28.3 -23.9 35.9 -24.9 c 0.2 0 0.4 -0.2 0.3 -0.4 c 0 -0.2 -0.2 -0.4 -0.4 -0.3 c -7.8 1 -30 13.7 -36.5 25.3 c -0.1 0.2 0 0.4 0.2 0.5 C 377 362.2 377 362.2 377.1 362.2 z"/>
			</g>
		</g>
	</g>
</g>
<g id="Device">
	<g id="Device_1_">
		<path id="XMLID_304_" style="fill: #37474f" d="M 111 385.3 l -2.7 -1.6 c -2.2 -1.3 -4 -4.4 -4 -6.9 V 138.3 c 0 -2.6 1.8 -5.7 4 -6.9 l 110 -63.5 c 2.2 -1.3 5.8 -1.3 8 0 l 2.7 1.6 c 2.2 1.3 4 4.4 4 6.9 v 238.5 c 0 2.6 -1.8 5.7 -4 6.9 l -110 63.5 C 116.8 386.6 113.2 386.6 111 385.3 z"/>
		<path id="XMLID_301_" style="fill: #263238" d="M 120.4 143 l -14.9 -8.6 c -0.7 1.3 -1.2 2.7 -1.2 3.9 V 376.8 c 0 2.6 1.8 5.7 4 6.9 l 2.7 1.6 c 2.2 1.3 5.8 1.3 8 0 l 1.4 -0.8 V 143 z"/>
		<path id="XMLID_298_" style="fill: #455a64" d="M 115 144.5 v 238.5 c 0 2.6 1.8 3.6 4 2.3 l 110 -63.5 c 2.2 -1.3 4 -4.4 4 -6.9 V 76.4 c 0 -2.6 -1.8 -3.6 -4 -2.3 l -110 63.5 C 116.8 138.8 115 141.9 115 144.5 z"/>
		<path id="XMLID_294_" style="fill: #fafafa" d="M 123.8 159.6 l 100 -57.7 c 1.9 -1.1 3.4 -0.2 3.4 2 v 190.3 c 0 2.2 -1.5 4.8 -3.4 5.9 l -100 57.7 c -1.9 1.1 -3.4 0.2 -3.4 -2 l 0 -190.3 C 120.4 163.3 121.9 160.6 123.8 159.6 z"/>
		<g id="XMLID_1334_" style="opacity: 0.4">
			<path id="XMLID_1336_" style="fill: #33ff52" d="M 174.4 174.6 c 11.2 -6.5 20.3 -1.2 20.3 11.7 c 0 12.9 -9.1 28.7 -20.3 35.2 c -11.2 6.5 -20.3 1.2 -20.3 -11.7 C 154.1 196.8 163.1 181 174.4 174.6 z"/>
			<path id="XMLID_1335_" style="fill: #33ff52" d="M 214.4 243.8 c 0 -21.3 -14.9 -30.7 -33.4 -20.1 l -11.5 6.6 c -18.4 10.6 -33.4 36.5 -33.4 57.8 v 5.7 l 78.2 -45.1 V 243.8 z"/>
		</g>
		<path id="XMLID_271_" style="fill: #263238" d="M 174 112 c 1.5 -0.9 2.7 -0.2 2.7 1.5 c 0 1.7 -1.2 3.8 -2.7 4.6 c -1.5 0.9 -2.7 0.2 -2.7 -1.5 C 171.3 114.9 172.5 112.8 174 112 z"/>
		<g id="XMLID_233_">
			<path id="XMLID_241_" style="fill: #263238" d="M 166.3 125.4 c 5.4 -3 15.2 -8.8 20.5 -12 c 0.9 -0.5 1.7 -0.2 1.7 0.8 c 0 1 -0.7 2.2 -1.7 2.8 l -20.6 11.9 c -0.9 0.5 -1.7 0.2 -1.7 -0.8 C 164.6 127.1 165.3 125.9 166.3 125.4 z"/>
			<path id="XMLID_238_" style="fill: #263238" d="M 161.1 128.4 c 0.8 -0.5 1.5 -0.1 1.5 0.9 c 0 1 -0.7 2.1 -1.5 2.6 c -0.8 0.5 -1.5 0.1 -1.5 -0.9 C 159.6 130 160.2 128.9 161.1 128.4 z"/>
		</g>
		<path id="XMLID_198_" style="fill: #263238" d="M 174 335 c 3 -1.7 5.4 -0.3 5.4 3.1 c 0 3.4 -2.4 7.6 -5.4 9.3 c -3 1.7 -5.4 0.3 -5.4 -3.1 C 168.6 340.8 171 336.7 174 335 z"/>
	</g>
</g>
<g id="Check_Mark">
	<g>
		<g id="XMLID_859_">
			<g id="XMLID_872_">
				<path id="XMLID_956_" style="fill: #33ff52" d="M 265.2 268.1 l -12.1 -7 c 0 0 0 0 0 0 l -0.1 -0.1 l 0 0 c -6 -3.4 -14.2 -2.9 -23.3 2.4 c -8.5 4.9 -16.3 13.1 -22.2 22.6 c -6.8 10.9 -11 23.6 -11 34.9 c 0 10.6 3.7 18 9.7 21.5 v 0 l 0 0 l 12.2 7 c 6 3.9 14.6 3.5 24.1 -2 c 18.3 -10.6 33.2 -36.3 33.2 -57.5 C 275.7 279 271.7 271.4 265.2 268.1 z"/>
				<g id="XMLID_873_">
					<path id="XMLID_955_" style="opacity: 0.1" d="M 218.2 349.4 l -12 -6.9 l 0 0 v 0 c -6 -3.5 -9.7 -10.9 -9.7 -21.5 c 0 -11.3 4.3 -24 11 -34.9 l 12.8 7.4 c -6.8 10.9 -11 23.5 -11 34.9 C 209.3 338.5 212.7 345.7 218.2 349.4 z"/>
					<path id="XMLID_954_" style="fill: #ffffff; opacity: 0.4" d="M 265 268 c -5.9 -2.9 -13.8 -2.1 -22.5 2.9 c -8.5 4.9 -16.3 13.1 -22.2 22.6 l -12.8 -7.4 c 5.9 -9.5 13.6 -17.7 22.2 -22.6 c 9.1 -5.3 17.3 -5.8 23.3 -2.4 l 0 0 l 0.1 0.1 c 0 0 0 0 0 0 L 265 268 z"/>
				</g>
			</g>
		</g>
		<g id="XMLID_1080_">
			<polygon id="XMLID_1085_" style="fill: #ffffff" points="259.8,281.5 255.2,278.8 237.2,321.3 240.2,323.1"/>
			<polygon id="XMLID_1084_" style="fill: #ffffff" points="233.6,311.8 229,309.2 224.1,319.6 228.7,322.3"/>
			<g id="XMLID_1082_">
				<polygon id="XMLID_1083_" style="fill: #f5f5f5" points="241.4,335.5 228.7,322.3 233.6,311.8 240.2,323.1 259.8,281.5 267,288.6"/>
			</g>
			<polygon id="XMLID_1081_" style="fill: #e0e0e0" points="224.1,319.6 228.7,322.3 241.4,335.5 236.8,332.9"/>
		</g>
	</g>
</g>
<g id="Character">
	<g id="XMLID_1152_">
		<path id="XMLID_1150_" style="fill: #263238" d="M 359 163.9 L 359 163.9 c 10.8 0 19.6 -8.8 19.6 -19.6 v -1.2 c 0 -9.2 -7.5 -16.6 -16.6 -16.6 h -6 c -9.2 0 -16.6 7.5 -16.6 16.6 v 1.2 C 339.3 155.1 348.1 163.9 359 163.9 z"/>
		<g id="XMLID_1235_">
			<path id="XMLID_1149_" style="fill: #263238" d="M 338.7 358.2 c -2.3 2.5 -4.8 4.5 -7.5 6.5 c -0.4 0.3 -0.8 0.6 -1 1.1 c -0.4 0.7 -0.9 2.6 2.4 3.7 c 3.3 1.1 7.4 0.9 10.3 -1 c 2.8 -1.7 2.9 -5.3 5.5 -7.4 c 1.9 -1.5 4.3 -1.9 5.9 -3.9 c 1.1 -1.4 0.8 -3.2 0.2 -5.5 c -0.6 -2.5 -0.9 -4.4 -1.7 -4.2 l 0.1 1.1 c -1 1.6 -6.3 2.1 -8.7 1 C 344.3 349.8 340.2 356.6 338.7 358.2 z"/>
			<path id="XMLID_1148_" style="fill: #b16668" d="M 336.4 360.5 c 0 0 0 0 0 0 c 0.8 -0.7 1.6 -1.5 2.3 -2.3 c 1 -1.1 3 -4.2 4.3 -6.4 c 0.8 -1.3 1.4 -2.9 1.2 -4.6 s -0.7 -6.1 -0.7 -6.1 l 8.4 -0.6 l 1 8.2 v 0 c 0.2 1.9 -1.3 3.5 -4.1 5.9 c -2.7 2.4 -6.2 7.9 -8.7 9.2 c -2.5 1.4 -4.2 1.3 -5.3 0.6 C 333.9 363.8 333.7 363.2 336.4 360.5 z"/>
			<path id="XMLID_1147_" style="fill: #263238" d="M 370.7 358.9 v -1.3 c -0.5 1.5 -2.8 7.9 -6.3 11.1 c -2.8 2.5 -6.6 5.5 -7.6 8.3 c -1 2.9 5.3 3.9 7.9 3.5 c 3 -0.5 6.9 -2.3 9.1 -4.9 c 1.5 -1.8 2.5 -4 3.5 -5.5 c 1.1 -1.4 3.5 -3.1 4.1 -4.7 c 0.3 -0.9 -0.1 -2.9 -0.5 -4.6 c -0.4 -1.6 -0.9 -3.3 -1.4 -3.1 c 0 0.2 0 1 0 1 c -0.6 0.7 -2.4 1.4 -4.4 1.5 C 373.8 360.2 370.7 359.9 370.7 358.9 z"/>
			<path id="XMLID_1146_" style="fill: #b16668" d="M 361.9 371 c 0.9 -0.8 1.7 -1.5 2.5 -2.2 c 2.4 -2.2 4.3 -6 5.4 -8.6 c 0.6 -1.5 0.9 -3 0.9 -4.6 v -5 h 8.8 v 8.2 v 0 v 0 v 0.2 l 0 0 c -0.4 1.8 -4.5 6.7 -6.8 9.9 c -1.5 2.1 -4.5 4.8 -8 5.3 C 361.4 374.5 359.7 373.5 361.9 371 z"/>
			<path id="XMLID_1145_" style="fill: #33ff52" d="M 377.8 221.7 c 6.8 15 -0.2 67.6 -0.2 67.6 c 0.2 2.4 3 7.2 4 17.9 c 1.2 12.6 -1.9 44.3 -1.9 44.3 s -4.1 2.7 -8.9 0.4 c 0 0 -8.4 -47.7 -10 -60.3 c -1.4 -11 -4 -36.7 -4 -36.7 l -6.9 36.9 c 0 0 2.2 6 2.7 10.7 c 0.7 7.4 0.2 41.5 0.2 41.5 s -3 2.3 -8.8 1.4 c 0 0 -10 -46.7 -10.8 -55.6 c -0.5 -5.3 5.6 -70.4 5.6 -70.4 L 377.8 221.7 z"/>
			<path id="XMLID_1_" style="opacity: 0.6" d="M 377.8 221.7 c 6.8 15 -0.2 67.6 -0.2 67.6 c 0.2 2.4 3 7.2 4 17.9 c 1.2 12.6 -1.9 44.3 -1.9 44.3 s -4.1 2.7 -8.9 0.4 c 0 0 -8.4 -47.7 -10 -60.3 c -1.4 -11 -4 -36.7 -4 -36.7 l -6.9 36.9 c 0 0 2.2 6 2.7 10.7 c 0.7 7.4 0.2 41.5 0.2 41.5 s -3 2.3 -8.8 1.4 c 0 0 -10 -46.7 -10.8 -55.6 c -0.5 -5.3 5.6 -70.4 5.6 -70.4 L 377.8 221.7 z"/>
			<path id="XMLID_1144_" style="opacity: 0.3" d="M 356.7 254.9 l -2.2 -12.2 c 0 0 -9.4 -1.9 -13.7 -6 c 0 0 4.5 5.6 11.1 7.4 l 2.5 10.7 l -3.9 33.4 L 356.7 254.9 z"/>
		</g>
		<g id="XMLID_1228_">
			<path id="XMLID_1143_" style="fill: #b16668" d="M 388.9 215.2 c -0.1 -1 -1.9 -11.5 -3.2 -17.3 l -12.3 3.8 l 2.2 10.8 l 10.4 8.3 C 389.3 220.1 389 216.2 388.9 215.2 z"/>
			<polygon id="XMLID_1142_" style="fill: #b16668" points="329.4,193.1 323.6,203.8 332.6,211.5 340.9,198.4"/>
			<path id="XMLID_1141_" style="fill: #33ff52" d="M 351.2 169.3 c -5.8 0.1 -12.1 2.2 -14.3 6.7 c -2.2 4.5 -8.2 17 -8.2 17 s 5.4 7.3 13.5 6.8 L 351.2 169.3 z"/>
			<path id="XMLID_3_" style="opacity: 0.6" d="M 351.2 169.3 c -5.8 0.1 -12.1 2.2 -14.3 6.7 c -2.2 4.5 -8.2 17 -8.2 17 s 5.4 7.3 13.5 6.8 L 351.2 169.3 z"/>
			<path id="XMLID_1140_" style="fill: #f5f5f5" d="M 363.2 169.5 l 4.8 0.2 c 5.2 1.3 7.1 4.8 9.3 9.5 c 1.7 3.5 1.7 7.6 0.4 11.3 l -6.1 17.7 c 0 0 2.9 6.9 6.2 13.5 c -15.4 8.6 -34.5 4.1 -39.1 -2.2 c -0.2 -1.3 0.1 -7.3 -0.3 -14.1 c -0.4 -7.3 -1.4 -15.4 -0.3 -19.9 c 2.1 -8.3 6.1 -16.1 14 -16.1 L 363.2 169.5 z"/>
			<path id="XMLID_1139_" style="fill: #33ff52" d="M 368 169.7 c 5.2 0.7 12.9 1.8 15.6 14.2 c 2.7 12.6 3.2 15.6 3.2 15.6 s -4.6 4.6 -13.3 4.5 C 373.5 204.1 365.8 179.3 368 169.7 z"/>
			<path id="XMLID_2_" style="opacity: 0.6" d="M 368 169.7 c 5.2 0.7 12.9 1.8 15.6 14.2 c 2.7 12.6 3.2 15.6 3.2 15.6 s -4.6 4.6 -13.3 4.5 C 373.5 204.1 365.8 179.3 368 169.7 z"/>
			<path id="XMLID_1138_" style="fill: #ebebeb" d="M 373.3 203.4 c -1 -3.3 -2 -7.1 -3 -11.1 c 0 0 0 8.8 1.5 15.2 L 373.3 203.4 z"/>
		</g>
		<g id="XMLID_1219_">
			<path id="XMLID_1136_" style="fill: #b16668" d="M 345.8 134.4 c -2.1 1.2 -4.6 6.4 -4.4 17.4 c 0.2 9.3 3.2 11.6 4.7 12.2 c 1.5 0.7 4.4 0.3 7.3 -0.2 v 5.6 c 0 0 -3.9 4.5 -3.7 7.1 c 0.2 2.6 5.6 3.2 9.3 0.7 c 3.7 -2.5 6 -6.3 6 -6.3 v -13.5 c 0 0 1.9 2.6 5 0.5 s 3.2 -7.2 1.4 -9.1 c -1.8 -1.8 -5.7 -1.3 -6.5 1.3 c 0 0 -4.5 0.2 -10.5 -3.1 C 348.5 143.7 346.2 138 345.8 134.4 z"/>
			<path id="XMLID_1121_" style="fill: #263238" d="M 351.7 149.5 c 0 0.7 0.5 1.2 1.1 1.3 c 0.6 0 1.2 -0.5 1.2 -1.2 c 0 -0.7 -0.5 -1.2 -1.1 -1.3 C 352.3 148.3 351.8 148.8 351.7 149.5 z"/>
			<path id="XMLID_1120_" style="fill: #9a4a4d" d="M 351.4 157.3 l -2.7 0.9 c 0.2 0.8 1 1.2 1.8 1 C 351.2 158.9 351.6 158.1 351.4 157.3 z"/>
			<path id="XMLID_1119_" style="fill: #263238" d="M 342.2 145.9 l 2.4 -1.6 c -0.4 -0.7 -1.3 -0.9 -2 -0.4 C 341.9 144.3 341.7 145.2 342.2 145.9 z"/>
			<path id="XMLID_1116_" style="fill: #263238" d="M 342.7 148.6 c 0 0.7 0.5 1.2 1.1 1.3 c 0.6 0 1.2 -0.5 1.2 -1.2 c 0 -0.7 -0.5 -1.2 -1.1 -1.3 C 343.3 147.4 342.7 148 342.7 148.6 z"/>
			<polygon id="XMLID_1115_" style="fill: #9a4a4d" points="348.2,148 348,155 344.3,153.8"/>
			<path id="XMLID_1112_" style="fill: #9a4a4d" d="M 353.4 163.8 c 3 -0.4 9.1 -2.2 10.1 -4.6 c 0 0 -0.3 1.5 -2.2 3.1 c -1.8 1.6 -7.9 3.3 -7.9 3.3 V 163.8 z"/>
		</g>
		<g id="XMLID_1155_">
			<polygon id="XMLID_1107_" style="fill: #33ff52" points="304.6,192.4 338.4,201.4 348.4,243.4 316.2,234"/>
			<path id="XMLID_1106_" style="opacity: 0.15" d="M 319.3 220.2 c -0.3 0.9 -2.2 3.2 -6.1 3.1 l -0.5 -1.7 L 319.3 220.2 z"/>
			<path id="XMLID_1105_" style="opacity: 0.15" d="M 326.9 221.6 c 0.1 1.1 2.5 3.2 6.3 4.5 c 4.4 1.5 11.2 0.7 11.2 0.7 l -0.6 -2.1 L 326.9 221.6 z"/>
			<path id="XMLID_1104_" style="opacity: 0.15" d="M 314.5 198.5 c 0 0 -0.1 -0.6 -0.3 -1.3 c -0.2 -0.7 1.8 -0.7 4.4 -0.1 l 5 1.3 c 2.6 0.7 4.8 1.8 5 2.5 l 0.3 1.3 L 314.5 198.5 z"/>
			<g id="XMLID_1156_">
				<path id="XMLID_1103_" style="fill: #37474f" d="M 312.1 193.7 c -0.1 -0.4 0.7 -0.6 1.8 -0.3 l 2 0.5 c 0 0 -0.6 -2.8 3.8 -1.8 c 4.4 1 5.3 4.1 5.3 4.1 s 0.9 0.3 2.1 0.6 c 1.2 0.3 2.2 1 2.4 1.4 l 0.2 0.8 l -17.4 -4.6 C 312.3 194.5 312.2 194.1 312.1 193.7 z"/>
				<path id="XMLID_1099_" style="fill: #37474f" d="M 314.5 195.1 c 1.6 0.4 2.3 0.6 2.5 1.7 c 0.3 1.3 0.4 2.2 0.4 2.2 l 7.7 2 c 0 0 -0.4 -1.6 -0.5 -2.2 c -0.1 -0.6 0.1 -1 1.4 -0.7 l 0.1 -0.5 l -12.1 -3.1 L 314.5 195.1 z"/>
				<path id="XMLID_845_" style="fill: #37474f" d="M 314.3 198.7 c 0 0 -0.1 -0.6 -0.3 -1.3 c -0.2 -0.7 1.8 -0.7 4.4 -0.1 l 5 1.3 c 2.6 0.7 4.8 1.8 5 2.5 l 0.3 1.3 L 314.3 198.7 z"/>
			</g>
		</g>
		<path id="XMLID_730_" style="fill: #b16668" d="M 386 220.7 l -10.4 -8.3 c 0 0 -22.9 4.1 -25.6 4.3 c -2.7 0.2 -5.7 -1.7 -6.7 -4.3 c -1 -2.6 -2.8 -2.3 -2.8 -2.3 s 0.8 3.4 1.1 4.4 c 0.3 1.1 -6.2 1.9 -9.8 0.7 c -3.6 -1.2 -8.8 0.5 -5.6 5.4 c 3.2 4.9 9.5 5.4 13.8 5.4 c 1.2 0 3.3 -0.1 5.4 -0.4 c 1.4 -0.2 2.8 -0.3 4.2 -0.4 C 358.5 224.7 382 222 386 220.7 z"/>
		<path id="XMLID_728_" style="fill: #b16668" d="M 308 204.7 c 0 0 1.2 4.3 1.5 5.4 c 0.3 1 4.2 2.9 6.7 3.6 c 2.5 0.7 5.2 1.5 4 5 c -1.1 3.2 -5.2 3.9 -7.3 3.9 c -2.1 -0.1 -4.9 -2.1 -6.1 -5.3 c -1.4 -4.1 -0.7 -8.5 -1.2 -10.9 C 305.1 203.9 306.7 203.3 308 204.7 z"/>
		<path id="XMLID_1137_" style="fill: #263238" d="M 376.1 185.5 L 376.1 185.5 c -6.1 0 -11.1 -5 -11.1 -11.1 v -15.6 l 0 0 c 6.1 0 11.1 5 11.1 11.1 V 185.5 z"/>
	</g>
</g>
</svg>
